<svg width="24" height="24" viewBox="0 0 24 24" fill="none" xmlns="http://www.w3.org/2000/svg">
<g clip-path="url(#clip0_42082_4371)">
<path fill-rule="evenodd" clip-rule="evenodd" d="M13.2232 0.869925L14.4531 1.7905C14.7895 2.04227 15.1435 2.17113 15.563 2.19447L17.0968 2.27978C18.0153 2.33088 18.7612 2.9568 18.971 3.85244L19.3214 5.34818C19.4172 5.75725 19.6056 6.08355 19.912 6.37103L21.0321 7.42239C21.7029 8.05188 21.8719 9.01085 21.457 9.83182L20.7639 11.2029C20.5744 11.5778 20.5089 11.9489 20.5588 12.366L20.7412 13.8914C20.8503 14.8048 20.3634 15.6481 19.5179 16.0102L18.1057 16.615C17.7194 16.7804 17.4308 17.0226 17.2009 17.3742L16.36 18.6599C15.8566 19.4298 14.9416 19.7628 14.061 19.4967L12.5904 19.0523C12.1883 18.9307 11.8115 18.9307 11.4093 19.0523L9.93878 19.4967C9.05823 19.7628 8.14323 19.4298 7.63975 18.6599L6.7989 17.3742C6.56893 17.0226 6.28032 16.7804 5.89407 16.6151L4.48196 16.0102C3.63639 15.6481 3.1495 14.8047 3.25867 13.8914L3.44101 12.366C3.49084 11.9488 3.42545 11.5778 3.23589 11.2028L2.54284 9.83177C2.12785 9.01085 2.29698 8.05188 2.96767 7.42235L4.08784 6.37099C4.39417 6.08346 4.58256 5.75721 4.67837 5.34813L5.02876 3.85239C5.23857 2.95675 5.9845 2.33083 6.90296 2.27974L8.43681 2.19443C8.85634 2.17108 9.21039 2.04222 9.54671 1.79046L10.7766 0.869878C11.513 0.318675 12.4868 0.318675 13.2232 0.869925ZM11.2154 10.5487L9.88075 9.21405C9.53481 8.86816 8.97372 8.86816 8.62778 9.21405C8.28189 9.55999 8.28189 10.1211 8.62778 10.467L10.5909 12.43C10.9367 12.7759 11.4979 12.7759 11.8438 12.43C13.027 11.2467 14.1969 10.0502 15.3746 8.8615C15.718 8.51491 15.7169 7.9556 15.3707 7.61135C15.0245 7.267 14.4636 7.26799 14.1198 7.61524L11.2154 10.5487ZM11.9999 3.37183C10.1636 3.37183 8.50112 4.11616 7.29765 5.31958C6.09423 6.523 5.3499 8.18552 5.3499 10.0218C5.3499 11.8581 6.09428 13.5206 7.29765 14.724C8.50107 15.9274 10.1636 16.6718 11.9999 16.6718C13.8362 16.6718 15.4988 15.9274 16.7021 14.724C17.9056 13.5206 18.6499 11.8581 18.6499 10.0218C18.6499 8.18547 17.9056 6.523 16.7021 5.31958C15.4988 4.11621 13.8362 3.37183 11.9999 3.37183ZM16.1719 5.84988C15.1042 4.78221 13.6292 4.12183 11.9999 4.12183C10.3706 4.12183 8.89562 4.78221 7.82795 5.84988C6.76028 6.91755 6.0999 8.39257 6.0999 10.0218C6.0999 11.6511 6.76028 13.1261 7.82795 14.1938C8.89562 15.2615 10.3706 15.9219 11.9999 15.9219C13.6292 15.9219 15.1042 15.2615 16.1719 14.1938C17.2396 13.1261 17.8999 11.6511 17.8999 10.0218C17.8999 8.39257 17.2396 6.91755 16.1719 5.84988ZM14.4987 20.3315L15.9563 23.4622C15.979 23.5109 16.0237 23.5409 16.0774 23.5434C16.1311 23.5458 16.1784 23.52 16.2054 23.4735L17.2924 21.6027L19.4239 21.9752C19.4768 21.9844 19.527 21.9648 19.5597 21.9222C19.5924 21.8795 19.5983 21.826 19.5756 21.7773L17.7632 17.8846L16.9877 19.0704C16.428 19.9263 15.4802 20.3896 14.4987 20.3315ZM9.5574 20.3276C8.55606 20.4071 7.58256 19.9426 7.01214 19.0704L6.26842 17.9332L4.47873 21.7773C4.45604 21.826 4.4619 21.8796 4.49462 21.9222C4.52729 21.9648 4.5775 21.9844 4.63042 21.9752L6.76187 21.6027L7.849 23.4735C7.876 23.52 7.92329 23.5458 7.97696 23.5433C8.03064 23.5409 8.0754 23.5109 8.09809 23.4622L9.5574 20.3276Z" fill="#70A8C1"/>
</g>
<defs>
<clipPath id="clip0_42082_4371">
<rect width="24" height="24" fill="white"/>
</clipPath>
</defs>
</svg>
