<svg width="24" height="24" viewBox="0 0 24 24" fill="none" xmlns="http://www.w3.org/2000/svg">
<g clip-path="url(#clip0_42082_4376)">
<path d="M23.3082 9.00942C23.2359 9.02678 23.1735 9.07202 23.1345 9.13525C23.0955 9.19849 23.0831 9.27458 23.1 9.34692C23.305 10.2171 23.4089 11.108 23.4094 12.0019C23.4058 15.0268 22.2026 17.9267 20.0637 20.0656C17.9248 22.2045 15.0249 23.4077 12 23.4113C9.51566 23.42 7.09795 22.6079 5.12255 21.1013C5.38778 20.7058 5.49375 20.2247 5.41923 19.7544C5.34471 19.2841 5.0952 18.8593 4.7207 18.5652C4.3462 18.2711 3.87439 18.1294 3.39981 18.1684C2.92523 18.2075 2.48296 18.4245 2.16162 18.7759C1.84028 19.1273 1.66362 19.5872 1.66704 20.0634C1.67046 20.5396 1.85372 20.9968 2.18007 21.3436C2.50643 21.6904 2.95178 21.901 3.42687 21.9332C3.90196 21.9655 4.37169 21.817 4.74192 21.5175C6.82184 23.1188 9.37518 23.9829 12 23.9738C13.8083 23.9718 15.5928 23.5607 17.2196 22.7712C18.8465 21.9818 20.2736 20.8344 21.394 19.415C22.5145 17.9957 23.2992 16.3412 23.6895 14.5755C24.0798 12.8099 24.0654 10.9788 23.6475 9.21942C23.6392 9.18328 23.6237 9.14916 23.6021 9.11902C23.5805 9.08888 23.5531 9.06331 23.5216 9.04379C23.49 9.02427 23.4549 9.01119 23.4183 9.00529C23.3817 8.99939 23.3442 9.00079 23.3082 9.00942Z" fill="#70A8C1"/>
<path d="M0.590832 12.0019C0.590954 9.97242 1.13237 7.9797 2.15926 6.2292C3.18614 4.4787 4.66133 3.03376 6.43274 2.04337C8.20414 1.05297 10.2076 0.552961 12.2367 0.594888C14.2657 0.636815 16.2469 1.21916 17.9758 2.28189C17.7974 2.66369 17.7688 3.09859 17.8958 3.50044C18.0228 3.9023 18.2961 4.24182 18.6615 4.45173C19.027 4.66165 19.4579 4.72667 19.8691 4.6339C20.2802 4.54113 20.6414 4.29735 20.8813 3.95084C21.1212 3.60433 21.2222 3.18036 21.1644 2.76291C21.1065 2.34545 20.8939 1.96496 20.5688 1.69679C20.2437 1.42862 19.8297 1.29234 19.4089 1.31493C18.988 1.33752 18.591 1.51733 18.2965 1.81876C16.4829 0.697642 14.4028 0.0811573 12.2713 0.0330207C10.1397 -0.015116 8.03392 0.506842 6.1716 1.54495C4.30927 2.58306 2.75794 4.09966 1.67795 5.93801C0.597947 7.77636 0.0284575 9.86977 0.0283316 12.0019C0.0273233 12.7327 0.0938562 13.4621 0.227082 14.1806C0.238517 14.2454 0.272432 14.304 0.322852 14.3462C0.373273 14.3884 0.436964 14.4114 0.502707 14.4113C0.519737 14.4112 0.536713 14.4094 0.553332 14.4056C0.626648 14.3924 0.691714 14.3506 0.73425 14.2894C0.776785 14.2283 0.793313 14.1527 0.780207 14.0794C0.653816 13.3941 0.590426 12.6987 0.590832 12.0019Z" fill="#70A8C1"/>
<path d="M10.3125 10.1438V10.3125H13.6875V10.1438C13.6613 7.86378 10.3388 7.86378 10.3125 10.1438Z" fill="#70A8C1"/>
<path d="M19.8659 6.15753C16.7009 6.1894 13.6559 4.23378 12.4915 3.39003C12.3485 3.28674 12.1766 3.23114 12.0003 3.23114C11.8239 3.23114 11.652 3.28674 11.509 3.39003C10.3446 4.23378 7.29213 6.1819 4.13463 6.15753C4.02249 6.15641 3.91124 6.17749 3.80729 6.21955C3.70333 6.26161 3.60872 6.32381 3.5289 6.40258C3.44909 6.48136 3.38564 6.57514 3.34221 6.67853C3.29879 6.78192 3.27624 6.89289 3.27588 7.00503C3.27775 11.3344 4.144 17.5275 11.6196 21.3113C11.7375 21.3714 11.8679 21.4027 12.0003 21.4027C12.1326 21.4027 12.263 21.3714 12.3809 21.3113C19.8565 17.5275 20.7228 11.3344 20.7246 7.00503C20.7229 6.77882 20.6316 6.56253 20.4706 6.40364C20.3096 6.24474 20.0921 6.15623 19.8659 6.15753ZM15.094 14.7188C15.094 15.0917 14.9458 15.4494 14.6821 15.7131C14.4184 15.9769 14.0607 16.125 13.6878 16.125H10.3128C9.93979 16.125 9.58211 15.9769 9.31839 15.7131C9.05466 15.4494 8.9065 15.0917 8.9065 14.7188V11.7188C8.90664 11.4453 8.98654 11.1778 9.1364 10.949C9.28626 10.7202 9.49959 10.5401 9.75025 10.4307V10.14C9.784 7.13065 14.2165 7.13065 14.2503 10.14V10.4307C14.5009 10.5401 14.7142 10.7202 14.8641 10.949C15.014 11.1778 15.0939 11.4453 15.094 11.7188V14.7188Z" fill="#70A8C1"/>
<path d="M12.4607 12.8959C12.4566 12.8707 12.4577 12.845 12.4642 12.8203C12.4707 12.7956 12.4823 12.7726 12.4982 12.7527C12.561 12.6618 12.5978 12.5556 12.6045 12.4453C12.6113 12.3351 12.5877 12.2252 12.5365 12.1274C12.4852 12.0296 12.4081 11.9477 12.3136 11.8905C12.2192 11.8334 12.1108 11.8032 12.0004 11.8032C11.89 11.8032 11.7817 11.8334 11.6872 11.8905C11.5927 11.9477 11.5156 12.0296 11.4644 12.1274C11.4131 12.2252 11.3896 12.3351 11.3963 12.4453C11.403 12.5556 11.4398 12.6618 11.5026 12.7527C11.5185 12.7723 11.5301 12.7952 11.5365 12.8196C11.543 12.8441 11.5442 12.8696 11.5401 12.8946C11.496 13.1142 11.3714 13.7419 11.2834 14.1777C11.2727 14.232 11.2742 14.2881 11.2878 14.3418C11.3013 14.3955 11.3266 14.4455 11.3618 14.4883C11.397 14.5311 11.4412 14.5655 11.4913 14.5892C11.5414 14.6128 11.5961 14.6251 11.6515 14.625H12.349C12.4045 14.6251 12.4593 14.6128 12.5094 14.589C12.5596 14.5653 12.6039 14.5308 12.6391 14.4879C12.6743 14.445 12.6995 14.3948 12.7129 14.3409C12.7264 14.2871 12.7277 14.231 12.7169 14.1765L12.4607 12.8959Z" fill="#70A8C1"/>
</g>
<defs>
<clipPath id="clip0_42082_4376">
<rect width="24" height="24" fill="white"/>
</clipPath>
</defs>
</svg>
